<?xml version="1.0" encoding="UTF-8" standalone="no"?>
<!-- Created with Inkscape (http://www.inkscape.org/) -->

<svg
   xmlns:dc="http://purl.org/dc/elements/1.1/"
   xmlns:cc="http://creativecommons.org/ns#"
   xmlns:rdf="http://www.w3.org/1999/02/22-rdf-syntax-ns#"
   xmlns:svg="http://www.w3.org/2000/svg"
   xmlns="http://www.w3.org/2000/svg"
   xmlns:sodipodi="http://sodipodi.sourceforge.net/DTD/sodipodi-0.dtd"
   xmlns:inkscape="http://www.inkscape.org/namespaces/inkscape"
   width="317.54883mm"
   height="87.276466mm"
   viewBox="0 0 1125.173 309.24732"
   id="svg2"
   version="1.1"
   inkscape:version="0.91 r13725"
   sodipodi:docname="loopcakeWhiteLogoWithText.svg">
  <defs
     id="defs4" />
  <sodipodi:namedview
     id="base"
     pagecolor="#ffffff"
     bordercolor="#666666"
     borderopacity="1.0"
     inkscape:pageopacity="0.0"
     inkscape:pageshadow="2"
     inkscape:zoom="0.45254834"
     inkscape:cx="518.87871"
     inkscape:cy="-138.90776"
     inkscape:document-units="px"
     inkscape:current-layer="layer1"
     showgrid="false"
     inkscape:window-width="1280"
     inkscape:window-height="697"
     inkscape:window-x="0"
     inkscape:window-y="1"
     inkscape:window-maximized="1"
     fit-margin-top="0"
     fit-margin-left="0"
     fit-margin-right="0"
     fit-margin-bottom="0" />
  <metadata
     id="metadata7">
    <rdf:RDF>
      <cc:Work
         rdf:about="">
        <dc:format>image/svg+xml</dc:format>
        <dc:type
           rdf:resource="http://purl.org/dc/dcmitype/StillImage" />
        <dc:title />
      </cc:Work>
    </rdf:RDF>
  </metadata>
  <g
     inkscape:label="Layer 1"
     inkscape:groupmode="layer"
     id="layer1"
     transform="translate(0,-743.11484)">
    <path
       inkscape:connector-curvature="0"
       inkscape:export-ydpi="20.393682"
       inkscape:export-xdpi="20.393682"
       inkscape:export-filename="/Users/Melih/Desktop/loopcakeWhiteWithBack.png"
       id="path4370"
       d="m 113.02185,743.11584 a 4.6497829,4.6497829 0 0 0 -0.787,0.059 c -40.441,6.5517 -83.5,30.1063 -111.37600027,69.3111 a 4.6497829,4.6497829 0 0 0 3.34599997,7.3209 l 338.4699703,32.5452 a 4.6497829,4.6497829 0 0 0 2.298,-8.8918 l -230.14297,-99.9603 a 4.6497829,4.6497829 0 0 0 -1.808,-0.3851 z M 4.6298497,828.26374 a 4.6497829,4.6497829 0 0 0 -4.62899996858,4.6493 l 0,54.2717 175.04899026858,16.832 48.012,-35.9632 a 2.6691178,2.6691178 0 0 1 1.597,-0.5321 2.6691178,2.6691178 0 0 1 2.161,4.2389 l -25.341,34.7971 113.53598,10.9169 19.94,-6.2167 c -1.163,-3.1054 -2.101,-6.0395 -2.548,-8.6539 -0.7,-4.0864 -0.362,-7.0889 1.126,-9.4712 1.488,-2.3822 4.481,-4.7268 10.809,-6.4509 a 4.6497829,4.6497829 0 0 0 3.428,-4.4858 l 0,-16.7376 a 4.6497829,4.6497829 0 0 0 -4.205,-4.6275 L 5.0948397,828.28554 a 4.6497829,4.6497829 0 0 0 -0.465,-0.022 z m -4.62899996858,68.2632 0,55.8409 147.97499026858,14.2277 9.068,-16.4016 -8.403,-24.0711 a 2.6691178,2.6691178 0 0 1 0.92,-3.0148 l 14.435,-10.8115 L 8.4973142e-4,896.52694 Z M 195.12084,915.28954 l -7.22399,9.9197 8.334,23.8768 a 2.6691178,2.6691178 0 0 1 -0.75401,2.8823 l -19.625,17.3078 145.06298,13.9479 21.539,-6.8941 c 0.509,-3.4414 1.043,-6.7247 1.532,-9.6891 a 4.6497829,4.6497829 0 0 0 -0.172,-2.2193 c -1.339,-4.0378 -2.694,-6.2291 -3.117,-9.7999 -0.422,-3.5708 -0.02,-9.0234 3.133,-18.9441 a 4.6497829,4.6497829 0 0 0 -0.07,-3.0384 c -1.602,-4.2787 -3.473,-8.5661 -5.269,-12.7421 l -22.492,7.0139 -120.87197,-11.6214 z m -195.11999026858,46.4187 0,53.45796 A 4.6497829,4.6497829 0 0 0 4.2048497,1019.7956 l 338.4699703,32.5452 a 4.6497829,4.6497829 0 0 0 5.095,-4.6293 l 0,-17.9199 a 4.6497829,4.6497829 0 0 0 -1.021,-2.9058 c -4.747,-5.9257 -6.594,-16.2962 -6.427,-27.63796 0.07,-4.2064 0.374,-8.5118 0.819,-12.7347 l -19.213,6.1494 -155.62697,-14.9632 -36.185,31.90956 a 2.6691178,2.6691178 0 0 1 -4.101,-3.2945 l 17.058,-30.84896 L 8.4973142e-4,961.70824 Z"
       style="fill:#ffffff;fill-opacity:1;fill-rule:evenodd;stroke:none;stroke-width:10;stroke-linecap:butt;stroke-linejoin:round;stroke-miterlimit:4;stroke-dasharray:none;stroke-opacity:1" />
    <text
       xml:space="preserve"
       style="font-style:normal;font-weight:normal;font-size:139.2046814px;line-height:125%;font-family:sans-serif;letter-spacing:0px;word-spacing:0px;fill:#ffffff;fill-opacity:1;stroke:none;stroke-width:1px;stroke-linecap:butt;stroke-linejoin:miter;stroke-opacity:1;"
       x="365.26312"
       y="954.20868"
       id="text4150"
       sodipodi:linespacing="125%"
       transform="scale(1.0000013,0.9999987)"><tspan
         sodipodi:role="line"
         id="tspan4152"
         x="365.26312"
         y="954.20868">LOOPCAKE</tspan></text>
  </g>
</svg>
